<svg width="24" height="24" viewBox="0 0 24 24" fill="none" xmlns="http://www.w3.org/2000/svg">
<path d="M20.249 12.5696C20.249 12.3821 20.249 12.1946 20.249 11.9996C20.249 11.8046 20.249 11.6171 20.249 11.4221L21.689 10.1621C21.9544 9.92811 22.1286 9.60784 22.1808 9.25787C22.2329 8.9079 22.1597 8.55076 21.974 8.24957L20.204 5.24957C20.0724 5.02177 19.8833 4.83256 19.6556 4.70092C19.4279 4.56928 19.1695 4.49984 18.9065 4.49957C18.7435 4.49832 18.5813 4.52366 18.4265 4.57457L16.604 5.18957C16.2893 4.98048 15.9611 4.79256 15.6215 4.62707L15.239 2.73707C15.1704 2.39178 14.9825 2.0816 14.7083 1.86085C14.4341 1.6401 14.0909 1.52283 13.739 1.52957H10.229C9.87699 1.52283 9.53386 1.6401 9.25963 1.86085C8.9854 2.0816 8.79755 2.39178 8.72897 2.73707L8.34647 4.62707C8.00442 4.79252 7.6737 4.98043 7.35647 5.18957L5.57147 4.54457C5.41494 4.50379 5.25285 4.48859 5.09147 4.49957C4.82842 4.49984 4.57008 4.56928 4.34234 4.70092C4.11461 4.83256 3.92549 5.02177 3.79397 5.24957L2.02397 8.24957C1.84891 8.55031 1.78386 8.90257 1.83996 9.246C1.89605 9.58943 2.06981 9.90267 2.33147 10.1321L3.74897 11.4296C3.74897 11.6171 3.74897 11.8046 3.74897 11.9996C3.74897 12.1946 3.74897 12.3821 3.74897 12.5771L2.33147 13.8371C2.06242 14.0681 1.88391 14.3869 1.82762 14.737C1.77133 15.0871 1.84089 15.4459 2.02397 15.7496L3.79397 18.7496C3.92549 18.9774 4.11461 19.1666 4.34234 19.2982C4.57008 19.4299 4.82842 19.4993 5.09147 19.4996C5.25448 19.5008 5.41661 19.4755 5.57147 19.4246L7.39397 18.8096C7.70862 19.0187 8.03685 19.2066 8.37647 19.3721L8.75897 21.2621C8.82755 21.6074 9.0154 21.9175 9.28963 22.1383C9.56386 22.3591 9.90699 22.4763 10.259 22.4696H13.799C14.1509 22.4763 14.4941 22.3591 14.7683 22.1383C15.0425 21.9175 15.2304 21.6074 15.299 21.2621L15.6815 19.3721C16.0235 19.2066 16.3542 19.0187 16.6715 18.8096L18.4865 19.4246C18.6413 19.4755 18.8035 19.5008 18.9665 19.4996C19.2295 19.4993 19.4879 19.4299 19.7156 19.2982C19.9433 19.1666 20.1324 18.9774 20.264 18.7496L21.974 15.7496C22.149 15.4488 22.2141 15.0966 22.158 14.7532C22.1019 14.4097 21.9281 14.0965 21.6665 13.8671L20.249 12.5696ZM18.9065 17.9996L16.334 17.1296C15.7318 17.6397 15.0435 18.0384 14.3015 18.3071L13.769 20.9996H10.229L9.69647 18.3371C8.96029 18.0608 8.27576 17.6627 7.67147 17.1596L5.09147 17.9996L3.32147 14.9996L5.36147 13.1996C5.22279 12.4232 5.22279 11.6284 5.36147 10.8521L3.32147 8.99957L5.09147 5.99957L7.66397 6.86957C8.26617 6.35949 8.95442 5.96076 9.69647 5.69207L10.229 2.99957H13.769L14.3015 5.66207C15.0377 5.93839 15.7222 6.33643 16.3265 6.83957L18.9065 5.99957L20.6765 8.99957L18.6365 10.7996C18.7751 11.5759 18.7751 12.3707 18.6365 13.1471L20.6765 14.9996L18.9065 17.9996Z" fill="white"/>
<path d="M12 16.5C11.11 16.5 10.24 16.2361 9.49994 15.7416C8.75991 15.2471 8.18314 14.5443 7.84254 13.7221C7.50195 12.8998 7.41283 11.995 7.58647 11.1221C7.7601 10.2492 8.18868 9.44736 8.81802 8.81802C9.44736 8.18868 10.2492 7.7601 11.1221 7.58647C11.995 7.41283 12.8998 7.50195 13.7221 7.84254C14.5443 8.18314 15.2471 8.75991 15.7416 9.49994C16.2361 10.24 16.5 11.11 16.5 12C16.506 12.5926 16.3937 13.1805 16.1697 13.7292C15.9457 14.2779 15.6145 14.7763 15.1954 15.1954C14.7763 15.6145 14.2779 15.9457 13.7292 16.1697C13.1805 16.3937 12.5926 16.506 12 16.5ZM12 9C11.6035 8.99077 11.2093 9.06205 10.8411 9.20954C10.473 9.35704 10.1386 9.57768 9.85812 9.85812C9.57768 10.1386 9.35704 10.473 9.20954 10.8411C9.06205 11.2093 8.99077 11.6035 9 12C8.99077 12.3965 9.06205 12.7907 9.20954 13.1589C9.35704 13.527 9.57768 13.8615 9.85812 14.1419C10.1386 14.4223 10.473 14.643 10.8411 14.7905C11.2093 14.938 11.6035 15.0092 12 15C12.3965 15.0092 12.7907 14.938 13.1589 14.7905C13.527 14.643 13.8615 14.4223 14.1419 14.1419C14.4223 13.8615 14.643 13.527 14.7905 13.1589C14.938 12.7907 15.0092 12.3965 15 12C15.0092 11.6035 14.938 11.2093 14.7905 10.8411C14.643 10.473 14.4223 10.1386 14.1419 9.85812C13.8615 9.57768 13.527 9.35704 13.1589 9.20954C12.7907 9.06205 12.3965 8.99077 12 9Z" fill="white"/>
</svg>
